# Blender v2.92.0 OBJ File: 'cubo1.blend'
# www.blender.org
mtllib cubo1.mtl
o Cube
v 0.700000 0.800000 -0.700000
v 0.800000 -0.700000 -0.700000
v 0.700000 0.800000 0.700000
v 0.800000 -0.700000 0.700000
v -0.700000 0.800000 -0.700000
v -0.700000 -0.700000 -0.800000
v -0.700000 0.800000 0.700000
v -0.700000 -0.800000 0.700000
v 0.800000 0.700000 0.700000
v -0.700000 0.700000 0.800000
v 0.800000 0.700000 -0.700000
v -0.700000 0.700000 -0.800000
v 0.700000 0.700000 -0.800000
v 0.700000 -0.700000 -0.800000
v 0.700000 0.700000 0.800000
v 0.700000 -0.800000 0.700000
v 0.700000 -0.800000 -0.700000
v -0.700000 -0.800000 -0.700000
v 1.000000 1.000000 -1.000000
v -0.829630 0.701640 -0.804744
v -0.829630 -0.698360 -0.804744
v -0.700000 -0.700000 0.800000
v 1.000000 -1.000000 -1.000000
v 0.700000 -0.700000 0.800000
v -0.829630 -0.698360 0.595256
v -0.829630 0.701640 0.595256
v 1.000000 1.000000 1.000000
v 1.000000 -1.000000 1.000000
v -1.000000 -1.000000 -1.000000
v -1.000000 -1.000000 1.000000
v -1.000000 1.000000 1.000000
v -1.000000 1.000000 -1.000000
v 0.000000 1.000000 0.000000
v -1.029630 0.001640 -0.104744
v 0.000000 0.000000 1.000000
v 1.000000 0.000000 0.000000
v 0.000000 -1.000000 0.000000
v 0.000000 0.000000 -1.000000
vt 0.837500 0.537500
vt 0.837500 0.712500
vt 0.837500 0.537500
vt 0.412500 0.962500
vt 0.412500 0.787500
vt 0.412500 0.962500
vt 0.587500 0.212500
vt 0.412500 0.212500
vt 0.587500 0.212500
vt 0.337500 0.712500
vt 0.162500 0.712500
vt 0.337500 0.712500
vt 0.412500 0.712500
vt 0.412500 0.537500
vt 0.412500 0.712500
vt 0.412500 0.287500
vt 0.587500 0.287500
vt 0.412500 0.287500
vt 0.625000 0.750000
vt 0.662500 0.712500
vt 0.625000 0.500000
vt 0.662500 0.537500
vt 0.875000 0.750000
vt 0.875000 0.500000
vt 0.587500 0.537500
vt 0.587500 0.712500
vt 0.375000 0.750000
vt 0.375000 0.500000
vt 0.412500 0.462500
vt 0.375000 0.250000
vt 0.587500 0.462500
vt 0.625000 0.250000
vt 0.125000 0.500000
vt 0.162500 0.537500
vt 0.337500 0.537500
vt 0.125000 0.750000
vt 0.587500 0.962500
vt 0.375000 1.000000
vt 0.587500 0.787500
vt 0.625000 1.000000
vt 0.412500 0.037500
vt 0.375000 0.000000
vt 0.625000 0.000000
vt 0.587500 0.037500
vt 0.412500 0.212500
vt 0.837500 0.712500
vt 0.662500 0.537500
vt 0.662500 0.712500
vt 0.412500 0.787500
vt 0.587500 0.037500
vt 0.412500 0.037500
vt 0.587500 0.712500
vt 0.587500 0.787500
vt 0.587500 0.962500
vt 0.162500 0.712500
vt 0.587500 0.537500
vt 0.412500 0.537500
vt 0.412500 0.462500
vt 0.337500 0.537500
vt 0.162500 0.537500
vt 0.587500 0.287500
vt 0.587500 0.462500
vn -0.2747 0.9615 0.0000
vn 0.0000 -0.2747 0.9615
vn -0.9615 0.0000 -0.2747
vn 0.0000 -0.9615 0.2747
vn 0.9615 -0.2747 0.0000
vn -0.2747 0.0000 -0.9615
vn 0.0000 0.8321 -0.5547
vn -0.5547 0.8321 0.0000
vn 0.5547 0.8321 0.0000
vn 0.0000 0.8321 0.5547
vn 0.8321 0.0000 0.5547
vn 0.8321 0.0000 -0.5547
vn 0.8321 -0.5547 0.0000
vn 0.8321 0.5547 0.0000
vn 0.0000 0.5547 -0.8321
vn -0.5547 0.0000 -0.8321
vn 0.5547 0.0000 -0.8321
vn 0.0000 -0.5547 -0.8321
vn 0.5547 -0.8321 0.0000
vn 0.0000 -0.8321 0.5547
vn 0.0000 -0.8321 -0.5547
vn -0.5547 -0.8321 0.0000
vn 0.5547 0.0000 0.8321
vn -0.5547 0.0000 0.8321
vn 0.0000 -0.5547 0.8321
vn 0.0000 0.5547 0.8321
vn -0.8707 0.4918 0.0000
vn -0.9217 0.0000 -0.3880
vn -0.7535 0.0000 0.6575
vn -0.8684 -0.4959 0.0000
vn -0.9615 -0.2747 0.0000
vn 0.0000 0.9615 0.2747
vn 0.0000 0.9615 -0.2747
vn 0.2747 0.9615 0.0000
vn 0.2747 0.0000 0.9615
vn -0.9615 0.2747 0.0000
vn -0.9615 0.0000 0.2747
vn 0.9615 0.0000 0.2747
vn 0.0000 0.2747 0.9615
vn -0.2747 0.0000 0.9615
vn -0.2747 -0.9615 0.0000
vn 0.9615 0.2747 0.0000
vn 0.9615 0.0000 -0.2747
vn 0.0000 -0.2747 -0.9615
vn 0.2747 -0.9615 0.0000
vn 0.0000 -0.9615 -0.2747
vn 0.0000 0.2747 -0.9615
vn 0.2747 0.0000 -0.9615
usemtl Material
s off
f 5/1/1 7/2/1 33/3/1
f 22/4/2 24/5/2 35/6/2
f 20/7/3 21/8/3 34/9/3
f 16/10/4 8/11/4 37/12/4
f 4/13/5 2/14/5 36/15/5
f 6/16/6 12/17/6 38/18/6
f 7/2/7 27/19/7 3/20/7
f 3/20/8 19/21/8 1/22/8
f 5/1/9 31/23/9 7/2/9
f 1/22/10 32/24/10 5/1/10
f 2/14/11 19/21/11 11/25/11
f 9/26/12 28/27/12 4/13/12
f 11/25/13 27/19/13 9/26/13
f 4/13/14 23/28/14 2/14/14
f 14/29/15 29/30/15 6/16/15
f 13/31/16 23/28/16 14/29/16
f 6/16/17 32/32/17 12/17/17
f 12/17/18 19/21/18 13/31/18
f 8/11/19 29/33/19 18/34/19
f 18/34/20 23/28/20 17/35/20
f 16/10/21 30/36/21 8/11/21
f 17/35/22 28/27/22 16/10/22
f 10/37/23 30/38/23 22/4/23
f 24/5/24 27/19/24 15/39/24
f 15/39/25 31/40/25 10/37/25
f 22/4/26 28/27/26 24/5/26
f 25/41/27 29/30/27 30/42/27
f 25/41/28 31/43/28 26/44/28
f 21/8/29 32/32/29 29/30/29
f 26/44/30 32/32/30 20/7/30
f 21/8/31 25/41/31 34/45/31
f 7/2/32 3/20/32 33/46/32
f 1/22/33 5/1/33 33/47/33
f 3/20/34 1/22/34 33/48/34
f 24/5/35 15/39/35 35/49/35
f 26/44/36 20/7/36 34/50/36
f 25/41/37 26/44/37 34/51/37
f 9/26/38 4/13/38 36/52/38
f 15/39/39 10/37/39 35/53/39
f 10/37/40 22/4/40 35/54/40
f 8/11/41 18/34/41 37/55/41
f 11/25/42 9/26/42 36/56/42
f 2/14/43 11/25/43 36/57/43
f 14/29/44 6/16/44 38/58/44
f 17/35/45 16/10/45 37/59/45
f 18/34/46 17/35/46 37/60/46
f 12/17/47 13/31/47 38/61/47
f 13/31/48 14/29/48 38/62/48
f 7/2/7 31/23/7 27/19/7
f 3/20/8 27/19/8 19/21/8
f 5/1/9 32/24/9 31/23/9
f 1/22/10 19/21/10 32/24/10
f 2/14/11 23/28/11 19/21/11
f 9/26/12 27/19/12 28/27/12
f 11/25/13 19/21/13 27/19/13
f 4/13/14 28/27/14 23/28/14
f 14/29/15 23/28/15 29/30/15
f 13/31/16 19/21/16 23/28/16
f 6/16/17 29/30/17 32/32/17
f 12/17/18 32/32/18 19/21/18
f 8/11/19 30/36/19 29/33/19
f 18/34/20 29/33/20 23/28/20
f 16/10/21 28/27/21 30/36/21
f 17/35/22 23/28/22 28/27/22
f 10/37/23 31/40/23 30/38/23
f 24/5/24 28/27/24 27/19/24
f 15/39/25 27/19/25 31/40/25
f 22/4/26 30/38/26 28/27/26
f 25/41/27 21/8/27 29/30/27
f 25/41/28 30/42/28 31/43/28
f 21/8/29 20/7/29 32/32/29
f 26/44/30 31/43/30 32/32/30
